<?xml version="1.0" encoding="utf-8"?>
<!-- Generator: Adobe Illustrator 26.0.3, SVG Export Plug-In . SVG Version: 6.00 Build 0)  -->
<svg version="1.0" id="Layer_1" xmlns="http://www.w3.org/2000/svg" xmlns:xlink="http://www.w3.org/1999/xlink" x="0px" y="0px"
	 viewBox="0 0 238 120" style="enable-background:new 0 0 238 120;" xml:space="preserve">
<style type="text/css">
	.st0{fill:#FFFFFF;}
	.st1{fill:#D8D8D8;}
	.st2{fill-rule:evenodd;clip-rule:evenodd;fill:#232F3E;}
	.st3{enable-background:new    ;}
	.st4{fill:#232F3E;}
	.st5{fill:#535B64;}
</style>
<g>
	<g>
		<rect x="0.5" y="0.5" class="st0" width="237" height="119"/>
	</g>
	<g>
		<path class="st1" d="M237,1v118H1V1H237 M238,0H0v120h238V0L238,0z"/>
	</g>
</g>
<g>
	<g>
		<g>
			<path class="st2" d="M74.2,36.1c-5.8,4.3-14.3,6.6-21.6,6.6c-10.2,0-19.4-3.8-26.4-10.1c-0.5-0.5-0.1-1.2,0.6-0.8
				c7.5,4.4,16.8,7,26.4,7c6.5,0,13.6-1.3,20.1-4.1C74.4,34.3,75.2,35.4,74.2,36.1z"/>
		</g>
		<g>
			<path class="st2" d="M76.7,33.3c-0.7-1-4.9-0.5-6.8-0.2c-0.6,0.1-0.7-0.4-0.1-0.8c3.3-2.3,8.8-1.7,9.5-0.9
				c0.6,0.8-0.2,6.3-3.3,8.9c-0.5,0.4-0.9,0.2-0.7-0.3C75.8,38.2,77.4,34.3,76.7,33.3z"/>
		</g>
	</g>
	<g>
		<path class="st2" d="M70,15.7v-2.3c0-0.3,0.3-0.6,0.6-0.6h10.2c0.3,0,0.6,0.2,0.6,0.6v2c0,0.3-0.3,0.8-0.8,1.4l-5.3,7.6
			c2,0,4,0.2,5.8,1.3c0.4,0.2,0.5,0.6,0.5,0.9V29c0,0.3-0.4,0.7-0.8,0.5c-3.1-1.6-7.3-1.8-10.8,0c-0.4,0.2-0.7-0.2-0.7-0.5v-2.3
			c0-0.4,0-1,0.4-1.6l6.1-8.8h-5.3C70.2,16.3,70,16.1,70,15.7z"/>
	</g>
	<g>
		<path class="st2" d="M32.7,30h-3.1c-0.3,0-0.5-0.2-0.6-0.5v-16c0-0.3,0.3-0.6,0.6-0.6h2.9c0.3,0,0.5,0.2,0.6,0.5v2.1h0.1
			c0.8-2,2.2-3,4.1-3c1.9,0,3.2,0.9,4,3c0.8-2,2.5-3,4.3-3c1.3,0,2.7,0.5,3.6,1.7c1,1.3,0.8,3.3,0.8,5v10.1c0,0.3-0.3,0.6-0.6,0.6
			h-3.1c-0.3,0-0.6-0.3-0.6-0.6v-8.5c0-0.7,0.1-2.4-0.1-3c-0.2-1.1-0.9-1.4-1.8-1.4c-0.8,0-1.5,0.5-1.9,1.3
			c-0.3,0.8-0.3,2.2-0.3,3.1v8.5c0,0.3-0.3,0.6-0.6,0.6h-3.1c-0.3,0-0.6-0.3-0.6-0.6v-8.5c0-1.8,0.3-4.4-1.9-4.4s-2.1,2.6-2.1,4.4
			v8.5C33.3,29.7,33,30,32.7,30z"/>
	</g>
	<g>
		<path class="st2" d="M90.2,12.6c4.6,0,7.1,4,7.1,9c0,4.9-2.8,8.7-7.1,8.7c-4.5,0-7-4-7-8.9C83.2,16.4,85.7,12.6,90.2,12.6z
			 M90.2,15.8c-2.3,0-2.4,3.1-2.4,5.1c0,1.9,0,6.1,2.4,6.1s2.5-3.4,2.5-5.4c0-1.3-0.1-3-0.5-4.2C91.9,16.3,91.2,15.8,90.2,15.8z"/>
	</g>
	<g>
		<path class="st2" d="M103.3,30h-3.1c-0.3,0-0.6-0.3-0.6-0.6v-16c0-0.3,0.3-0.5,0.6-0.5h2.9c0.3,0,0.5,0.2,0.6,0.4v2.4h0.1
			c0.9-2.2,2.1-3.2,4.2-3.2c1.4,0,2.8,0.5,3.6,1.9c0.8,1.3,0.8,3.4,0.8,5v10c0,0.3-0.3,0.5-0.6,0.5h-3.1c-0.3,0-0.5-0.2-0.6-0.5
			v-8.7c0-1.7,0.2-4.3-1.9-4.3c-0.8,0-1.5,0.5-1.8,1.3c-0.4,1-0.5,1.9-0.5,3v8.6C103.9,29.7,103.6,30,103.3,30z"/>
	</g>
	<g>
		<path class="st2" d="M61.8,22.4c0,1.2,0,2.2-0.6,3.3c-0.5,0.9-1.3,1.4-2.2,1.4c-1.2,0-1.9-0.9-1.9-2.3c0-2.7,2.4-3.1,4.6-3.1v0.7
			H61.8z M65,29.9c-0.2,0.2-0.5,0.2-0.7,0.1c-1-0.9-1.2-1.3-1.8-2.1c-1.7,1.7-2.9,2.3-5.1,2.3c-2.6,0-4.7-1.6-4.7-4.8
			c0-2.5,1.4-4.2,3.3-5.1c1.7-0.7,4-0.9,5.9-1.1v-0.4c0-0.7,0.1-1.6-0.4-2.3c-0.4-0.6-1.1-0.8-1.7-0.8c-1.2,0-2.2,0.6-2.5,1.9
			c-0.1,0.3-0.3,0.6-0.5,0.6l-3-0.3c-0.3-0.1-0.5-0.3-0.5-0.7c0.7-3.7,4-4.8,7-4.8c1.5,0,3.5,0.4,4.7,1.5c1.5,1.4,1.4,3.3,1.4,5.4
			v4.8c0,1.5,0.6,2.1,1.2,2.9c0.2,0.3,0.2,0.6,0,0.8C66.7,28.4,65.6,29.4,65,29.9L65,29.9z"/>
	</g>
	<g>
		<path class="st2" d="M21,22.4c0,1.2,0,2.2-0.6,3.3c-0.5,0.9-1.3,1.4-2.2,1.4c-1.2,0-1.9-0.9-1.9-2.3c0-2.7,2.4-3.1,4.6-3.1v0.7H21
			z M24.2,29.9c-0.2,0.2-0.5,0.2-0.7,0.1c-1-0.9-1.2-1.3-1.8-2.1c-1.7,1.7-2.9,2.3-5.1,2.3c-2.6,0-4.7-1.6-4.7-4.8
			c0-2.5,1.4-4.2,3.3-5.1c1.7-0.7,4-0.9,5.9-1.1v-0.4c0-0.7,0.1-1.6-0.4-2.3c-0.4-0.6-1.1-0.8-1.7-0.8c-1.2,0-2.2,0.6-2.5,1.9
			c-0.1,0.3-0.3,0.6-0.5,0.6l-3-0.3c-0.3-0.1-0.5-0.3-0.5-0.7c0.7-3.7,4-4.8,7-4.8c1.5,0,3.5,0.4,4.7,1.5c1.5,1.4,1.4,3.3,1.4,5.4
			v4.8c0,1.5,0.6,2.1,1.2,2.9c0.2,0.3,0.2,0.6,0,0.8C25.9,28.4,24.8,29.4,24.2,29.9L24.2,29.9z"/>
	</g>
</g>
<g class="st3">
	<path class="st4" d="M131.6,29.1c-0.8,0.8-1.7,1.2-2.9,1.2s-2.1-0.4-2.9-1.2c-0.8-0.8-1.2-1.7-1.2-2.9c0-1.1,0.4-2.1,1.2-2.9
		c0.8-0.8,1.7-1.2,2.9-1.2s2.1,0.4,2.9,1.2s1.2,1.7,1.2,2.9C132.8,27.4,132.4,28.4,131.6,29.1z M126.6,28.4c0.6,0.6,1.3,0.9,2.2,0.9
		s1.6-0.3,2.2-0.9c0.6-0.6,0.9-1.3,0.9-2.2c0-0.9-0.3-1.6-0.9-2.2c-0.6-0.6-1.3-0.9-2.2-0.9s-1.6,0.3-2.2,0.9
		c-0.6,0.6-0.9,1.3-0.9,2.2C125.7,27.1,126,27.8,126.6,28.4z"/>
	<path class="st4" d="M144.1,22.4v7.7h-1v-6.7H140v6.7h-1v-6.7h-3.1v6.7h-1v-6.7h-1.3v-1h1.3v-0.3c0-1,0.3-1.8,0.8-2.3
		s1.4-0.7,2.4-0.7v1c-0.8-0.1-1.3,0.1-1.7,0.4c-0.4,0.3-0.5,0.8-0.5,1.6v0.3h3.1V22c0-2,1.1-3,3.2-3c0.4,0,0.9,0.1,1.5,0.2v0.9
		c-0.5-0.1-1-0.1-1.5-0.1c-0.8,0-1.3,0.1-1.7,0.4c-0.4,0.3-0.5,0.8-0.5,1.5v0.5H144.1z"/>
	<path class="st4" d="M149.9,30.3c-1.2,0-2.1-0.4-2.9-1.2s-1.2-1.7-1.2-2.9c0-1.1,0.4-2.1,1.2-2.9s1.7-1.2,2.9-1.2
		c0.8,0,1.4,0.2,2,0.5s1,0.9,1.3,1.5l-0.8,0.5c-0.2-0.5-0.5-0.8-1-1.1c-0.5-0.3-1-0.4-1.5-0.4c-0.9,0-1.6,0.3-2.2,0.9
		c-0.6,0.6-0.9,1.3-0.9,2.2c0,0.9,0.3,1.6,0.9,2.2c0.6,0.6,1.3,0.9,2.2,0.9c0.6,0,1.1-0.1,1.5-0.4c0.5-0.3,0.8-0.6,1.1-1.1l0.8,0.5
		c-0.3,0.6-0.8,1.1-1.4,1.5C151.3,30.1,150.6,30.3,149.9,30.3z"/>
	<path class="st4" d="M155.8,20.6c-0.1,0.1-0.3,0.2-0.5,0.2c-0.2,0-0.4-0.1-0.5-0.2c-0.1-0.1-0.2-0.3-0.2-0.5c0-0.2,0.1-0.4,0.2-0.5
		c0.1-0.1,0.3-0.2,0.5-0.2c0.2,0,0.4,0.1,0.5,0.2c0.1,0.1,0.2,0.3,0.2,0.5C156,20.2,156,20.4,155.8,20.6z M154.8,30.1v-7.7h1v7.7
		H154.8z"/>
	<path class="st4" d="M164.6,22.4h1v7.7h-1v-1.5c-0.7,1.1-1.7,1.7-3.1,1.7c-1.1,0-2-0.4-2.8-1.2c-0.8-0.8-1.2-1.7-1.2-2.9
		c0-1.1,0.4-2.1,1.2-2.9c0.8-0.8,1.7-1.2,2.8-1.2c1.4,0,2.4,0.6,3.1,1.7V22.4z M159.4,28.4c0.6,0.6,1.3,0.9,2.2,0.9s1.6-0.3,2.2-0.9
		c0.6-0.6,0.9-1.3,0.9-2.2c0-0.9-0.3-1.6-0.9-2.2c-0.6-0.6-1.3-0.9-2.2-0.9s-1.6,0.3-2.2,0.9c-0.6,0.6-0.9,1.3-0.9,2.2
		C158.5,27.1,158.8,27.8,159.4,28.4z"/>
	<path class="st4" d="M167.7,30.1V18.9h1v11.2H167.7z"/>
	<path class="st4" d="M178.9,22.2c1.1,0,2,0.4,2.8,1.2c0.8,0.8,1.2,1.7,1.2,2.9c0,1.1-0.4,2.1-1.2,2.9c-0.8,0.8-1.7,1.2-2.8,1.2
		c-1.4,0-2.4-0.6-3.1-1.7v4.6h-1V22.4h1v1.5C176.5,22.8,177.5,22.2,178.9,22.2z M176.7,28.4c0.6,0.6,1.3,0.9,2.2,0.9
		s1.6-0.3,2.2-0.9c0.6-0.6,0.9-1.3,0.9-2.2c0-0.9-0.3-1.6-0.9-2.2c-0.6-0.6-1.3-0.9-2.2-0.9s-1.6,0.3-2.2,0.9
		c-0.6,0.6-0.9,1.3-0.9,2.2C175.8,27.1,176.1,27.8,176.7,28.4z"/>
	<path class="st4" d="M191.2,22.4h1v7.7h-1v-1.5c-0.7,1.1-1.7,1.7-3.1,1.7c-1.1,0-2-0.4-2.8-1.2c-0.8-0.8-1.2-1.7-1.2-2.9
		c0-1.1,0.4-2.1,1.2-2.9c0.8-0.8,1.7-1.2,2.8-1.2c1.4,0,2.4,0.6,3.1,1.7V22.4z M186,28.4c0.6,0.6,1.3,0.9,2.2,0.9
		c0.9,0,1.6-0.3,2.2-0.9c0.6-0.6,0.9-1.3,0.9-2.2c0-0.9-0.3-1.6-0.9-2.2c-0.6-0.6-1.3-0.9-2.2-0.9c-0.9,0-1.6,0.3-2.2,0.9
		c-0.6,0.6-0.9,1.3-0.9,2.2C185.1,27.1,185.4,27.8,186,28.4z"/>
	<path class="st4" d="M195.4,23.7c0.5-0.9,1.3-1.4,2.4-1.4v1c-0.7,0-1.3,0.2-1.7,0.6c-0.5,0.4-0.7,1.1-0.7,1.9v4.3h-1v-7.7h1V23.7z"
		/>
	<path class="st4" d="M203.4,23.4h-2.2v4.7c0,0.4,0.1,0.7,0.2,0.9c0.2,0.2,0.4,0.3,0.7,0.3c0.3,0,0.7,0,1.2,0v0.9
		c-1.1,0.2-1.9,0.1-2.4-0.2c-0.5-0.3-0.8-0.9-0.8-1.8v-4.7h-1.6v-1h1.6v-1.8l1-0.3v2.2h2.2V23.4z"/>
	<path class="st4" d="M208.7,22.2c0.9,0,1.7,0.3,2.2,0.9c0.5,0.6,0.8,1.3,0.8,2.3v4.7h-1v-4.7c0-0.7-0.2-1.2-0.5-1.6
		s-0.9-0.6-1.5-0.6c-0.7,0-1.3,0.2-1.8,0.7s-0.7,1.2-0.7,2.2v4h-1v-7.7h1v1.2C206.7,22.7,207.6,22.2,208.7,22.2z"/>
	<path class="st4" d="M217.3,22.2c1.1,0,2.1,0.4,2.8,1.2s1.1,1.8,1.1,2.9c0,0.1,0,0.3,0,0.5h-6.8c0.1,0.8,0.4,1.4,1,1.9
		c0.6,0.5,1.2,0.7,2.1,0.7c0.6,0,1.1-0.1,1.5-0.4c0.4-0.2,0.7-0.6,1-0.9l0.9,0.5c-0.3,0.5-0.8,1-1.4,1.3c-0.6,0.3-1.3,0.5-2,0.5
		c-1.2,0-2.2-0.4-3-1.1c-0.8-0.8-1.1-1.7-1.1-2.9c0-1.1,0.4-2.1,1.1-2.9S216.1,22.2,217.3,22.2z M217.3,23.2c-0.8,0-1.5,0.2-2,0.7
		c-0.5,0.5-0.9,1.1-1,1.9h5.7c-0.1-0.8-0.4-1.4-0.9-1.9C218.6,23.4,218,23.2,217.3,23.2z"/>
	<path class="st4" d="M223.7,23.7c0.5-0.9,1.3-1.4,2.4-1.4v1c-0.7,0-1.3,0.2-1.7,0.6c-0.5,0.4-0.7,1.1-0.7,1.9v4.3h-1v-7.7h1V23.7z"
		/>
</g>
<g class="st3">
	<path class="st5" d="M19.7,72.7c-1.9,0-3.5-0.4-4.9-1.3c-1.4-0.9-2.3-2.1-2.8-3.7l1.8-1c0.4,1.3,1.1,2.3,2.1,3
		c1,0.7,2.3,1.1,3.9,1.1c1.5,0,2.7-0.3,3.6-1c0.9-0.7,1.3-1.6,1.3-2.7c0-1.1-0.4-1.9-1.2-2.5s-2.1-1.1-3.9-1.7
		c-2.1-0.7-3.6-1.3-4.3-1.7c-1.6-0.9-2.4-2.3-2.4-4.1c0-1.8,0.6-3.1,1.8-4.2c1.2-1,2.7-1.5,4.5-1.5c1.6,0,3,0.4,4.2,1.3
		c1.2,0.8,2.1,1.9,2.6,3.2l-1.7,1c-0.9-2.3-2.6-3.4-5.1-3.4c-1.3,0-2.3,0.3-3.1,0.9c-0.8,0.6-1.2,1.5-1.2,2.6c0,1,0.4,1.8,1.1,2.3
		c0.7,0.5,1.9,1,3.5,1.6c0.7,0.3,1.3,0.4,1.6,0.5s0.8,0.3,1.4,0.5c0.6,0.2,1.1,0.5,1.4,0.7c0.3,0.2,0.7,0.4,1.1,0.8
		c0.4,0.3,0.7,0.7,0.9,1c0.2,0.3,0.4,0.7,0.5,1.2c0.1,0.5,0.2,1,0.2,1.5c0,1.8-0.6,3.2-1.9,4.2C23.4,72.2,21.8,72.7,19.7,72.7z"/>
	<path class="st5" d="M37,57.2c2.2,0,4,0.8,5.3,2.3c1.4,1.5,2,3.4,2,5.5c0,0.2,0,0.5-0.1,0.9h-13c0.2,1.5,0.8,2.7,1.9,3.6
		c1.1,0.9,2.4,1.3,4,1.3c1.1,0,2.1-0.2,2.9-0.7c0.8-0.5,1.4-1.1,1.8-1.8l1.7,1c-0.7,1-1.5,1.9-2.7,2.5c-1.1,0.6-2.4,0.9-3.8,0.9
		c-2.3,0-4.2-0.7-5.7-2.2c-1.5-1.5-2.2-3.3-2.2-5.6c0-2.2,0.7-4.1,2.2-5.5C32.9,57.9,34.8,57.2,37,57.2z M37,59.1
		c-1.5,0-2.8,0.5-3.9,1.4c-1,0.9-1.7,2.1-1.8,3.6h11c-0.2-1.6-0.8-2.8-1.8-3.6C39.5,59.5,38.4,59.1,37,59.1z"/>
	<path class="st5" d="M49.4,60c0.9-1.8,2.5-2.7,4.7-2.7v1.9c-1.3,0-2.5,0.4-3.3,1.2c-0.9,0.8-1.3,2-1.3,3.7v8.2h-2V57.5h2V60z"/>
	<path class="st5" d="M67.4,57.5h2.1l-6.1,14.8H61L55,57.5H57l5.2,12.7L67.4,57.5z"/>
	<path class="st5" d="M73.8,54c-0.3,0.3-0.6,0.4-1,0.4s-0.7-0.1-1-0.4c-0.3-0.3-0.4-0.6-0.4-1s0.1-0.7,0.4-1c0.3-0.3,0.6-0.4,1-0.4
		s0.7,0.1,1,0.4c0.3,0.3,0.4,0.6,0.4,1S74.1,53.7,73.8,54z M71.8,72.3V57.5h2v14.8H71.8z"/>
	<path class="st5" d="M84.8,72.7c-2.2,0-4.1-0.7-5.6-2.2C77.8,69,77,67.1,77,64.9s0.7-4,2.2-5.5c1.5-1.5,3.3-2.2,5.6-2.2
		c1.5,0,2.8,0.4,3.9,1c1.2,0.7,2,1.6,2.5,2.8L89.7,62c-0.4-0.9-1-1.6-1.9-2.1c-0.9-0.5-1.9-0.8-3-0.8c-1.6,0-3,0.6-4.1,1.7
		c-1.1,1.1-1.7,2.5-1.7,4.2c0,1.6,0.6,3,1.7,4.2c1.1,1.1,2.5,1.7,4.1,1.7c1.1,0,2.1-0.3,3-0.8s1.5-1.2,2-2.1l1.6,0.9
		c-0.6,1.2-1.5,2.1-2.7,2.8C87.6,72.3,86.3,72.7,84.8,72.7z"/>
	<path class="st5" d="M100.9,57.2c2.2,0,4,0.8,5.3,2.3c1.4,1.5,2,3.4,2,5.5c0,0.2,0,0.5-0.1,0.9h-13c0.2,1.5,0.8,2.7,1.9,3.6
		c1.1,0.9,2.4,1.3,4,1.3c1.1,0,2.1-0.2,2.9-0.7c0.8-0.5,1.4-1.1,1.8-1.8l1.7,1c-0.7,1-1.5,1.9-2.7,2.5c-1.1,0.6-2.4,0.9-3.8,0.9
		c-2.3,0-4.2-0.7-5.7-2.2c-1.5-1.5-2.2-3.3-2.2-5.6c0-2.2,0.7-4.1,2.2-5.5C96.8,57.9,98.7,57.2,100.9,57.2z M100.9,59.1
		c-1.5,0-2.8,0.5-3.9,1.4c-1,0.9-1.7,2.1-1.8,3.6h11c-0.2-1.6-0.8-2.8-1.8-3.6C103.5,59.5,102.3,59.1,100.9,59.1z"/>
	<path class="st5" d="M126.5,51.6c1.9,0,3.4,0.6,4.6,1.9c1.2,1.2,1.9,2.8,1.9,4.6c0,1.9-0.6,3.4-1.9,4.6c-1.2,1.2-2.8,1.9-4.6,1.9
		h-5.3v7.7h-2.1V51.6H126.5z M126.5,62.7c1.3,0,2.3-0.4,3.2-1.3c0.8-0.9,1.3-1.9,1.3-3.3c0-1.3-0.4-2.4-1.3-3.3s-1.9-1.3-3.2-1.3
		h-5.3v9.1H126.5z"/>
	<path class="st5" d="M137.9,60c0.9-1.8,2.5-2.7,4.7-2.7v1.9c-1.3,0-2.5,0.4-3.3,1.2c-0.9,0.8-1.3,2-1.3,3.7v8.2h-2V57.5h2V60z"/>
	<path class="st5" d="M156.7,70.4c-1.5,1.5-3.3,2.2-5.5,2.2c-2.2,0-4-0.7-5.5-2.2c-1.5-1.5-2.3-3.3-2.3-5.5s0.8-4,2.3-5.5
		c1.5-1.5,3.3-2.2,5.5-2.2c2.2,0,4,0.7,5.5,2.2c1.5,1.5,2.3,3.3,2.3,5.5S158.2,69,156.7,70.4z M147.1,69.1c1.1,1.1,2.5,1.7,4.1,1.7
		c1.6,0,3-0.6,4.1-1.7c1.1-1.1,1.7-2.5,1.7-4.2c0-1.6-0.6-3-1.7-4.2c-1.1-1.1-2.5-1.7-4.1-1.7c-1.6,0-3,0.6-4.1,1.7
		c-1.1,1.1-1.7,2.5-1.7,4.2C145.4,66.6,145.9,68,147.1,69.1z"/>
	<path class="st5" d="M172.3,57.5h2.1l-6.1,14.8h-2.4l-6.1-14.8h2.1l5.2,12.7L172.3,57.5z"/>
	<path class="st5" d="M178.7,54c-0.3,0.3-0.6,0.4-1,0.4s-0.7-0.1-1-0.4c-0.3-0.3-0.4-0.6-0.4-1s0.1-0.7,0.4-1c0.3-0.3,0.6-0.4,1-0.4
		s0.7,0.1,1,0.4c0.3,0.3,0.4,0.6,0.4,1S179,53.7,178.7,54z M176.7,72.3V57.5h2v14.8H176.7z"/>
	<path class="st5" d="M195.5,51.6h2v20.7h-2v-2.9c-1.4,2.2-3.4,3.3-6,3.3c-2.1,0-3.9-0.7-5.4-2.2c-1.5-1.5-2.2-3.3-2.2-5.5
		c0-2.2,0.7-4,2.2-5.5c1.5-1.5,3.3-2.2,5.4-2.2c2.6,0,4.6,1.1,6,3.3V51.6z M185.6,69.1c1.1,1.1,2.5,1.7,4.1,1.7c1.6,0,3-0.6,4.1-1.7
		c1.1-1.1,1.7-2.5,1.7-4.2c0-1.6-0.6-3-1.7-4.2c-1.1-1.1-2.5-1.7-4.1-1.7c-1.6,0-3,0.6-4.1,1.7c-1.1,1.1-1.7,2.5-1.7,4.2
		C183.9,66.6,184.5,68,185.6,69.1z"/>
	<path class="st5" d="M208.5,57.2c2.2,0,4,0.8,5.3,2.3c1.4,1.5,2,3.4,2,5.5c0,0.2,0,0.5-0.1,0.9h-13c0.2,1.5,0.8,2.7,1.9,3.6
		c1.1,0.9,2.4,1.3,4,1.3c1.1,0,2.1-0.2,2.9-0.7c0.8-0.5,1.4-1.1,1.8-1.8l1.7,1c-0.7,1-1.5,1.9-2.7,2.5c-1.1,0.6-2.4,0.9-3.8,0.9
		c-2.3,0-4.2-0.7-5.7-2.2c-1.5-1.5-2.2-3.3-2.2-5.6c0-2.2,0.7-4.1,2.2-5.5C204.3,57.9,206.2,57.2,208.5,57.2z M208.5,59.1
		c-1.5,0-2.8,0.5-3.9,1.4s-1.7,2.1-1.8,3.6h11c-0.2-1.6-0.8-2.8-1.8-3.6C211,59.5,209.8,59.1,208.5,59.1z"/>
	<path class="st5" d="M220.9,60c0.9-1.8,2.5-2.7,4.7-2.7v1.9c-1.3,0-2.5,0.4-3.3,1.2c-0.9,0.8-1.3,2-1.3,3.7v8.2h-2V57.5h2V60z"/>
</g>
<g class="st3">
	<path class="st5" d="M25.9,87.1h2.1v20.7h-1.8L14.6,91v16.9h-2.1V87.1h1.8L25.9,104V87.1z"/>
	<path class="st5" d="M39.2,92.7c2.2,0,4,0.8,5.3,2.3c1.4,1.5,2,3.4,2,5.5c0,0.2,0,0.5-0.1,0.9h-13c0.2,1.5,0.8,2.7,1.9,3.6
		c1.1,0.9,2.4,1.3,4,1.3c1.1,0,2.1-0.2,2.9-0.7c0.8-0.5,1.4-1.1,1.8-1.8l1.7,1c-0.7,1-1.5,1.9-2.7,2.5c-1.1,0.6-2.4,0.9-3.8,0.9
		c-2.3,0-4.2-0.7-5.7-2.2c-1.5-1.5-2.2-3.3-2.2-5.6c0-2.2,0.7-4.1,2.2-5.5C35.1,93.4,36.9,92.7,39.2,92.7z M39.2,94.6
		c-1.5,0-2.8,0.5-3.9,1.4c-1,0.9-1.7,2.1-1.8,3.6h11c-0.2-1.6-0.8-2.8-1.8-3.6C41.7,95,40.5,94.6,39.2,94.6z"/>
	<path class="st5" d="M57,94.9h-4.3v9c0,0.8,0.2,1.4,0.5,1.7s0.8,0.5,1.4,0.5s1.4,0,2.4,0v1.7c-2.1,0.3-3.6,0.2-4.7-0.4
		c-1-0.6-1.6-1.8-1.6-3.5v-9h-3.1V93h3.1v-3.5l2-0.6V93H57V94.9z"/>
	<path class="st5" d="M78.1,93h2l-4.6,14.8h-2.1l-3.8-11.9l-3.8,11.9h-2.1L59.1,93h2l3.6,12.3L68.6,93h2l3.9,12.3L78.1,93z"/>
	<path class="st5" d="M94.9,105.9c-1.5,1.5-3.3,2.2-5.5,2.2c-2.2,0-4-0.7-5.5-2.2c-1.5-1.5-2.3-3.3-2.3-5.5s0.8-4,2.3-5.5
		c1.5-1.5,3.3-2.2,5.5-2.2c2.2,0,4,0.7,5.5,2.2c1.5,1.5,2.3,3.3,2.3,5.5S96.4,104.5,94.9,105.9z M85.2,104.6
		c1.1,1.1,2.5,1.7,4.1,1.7c1.6,0,3-0.6,4.1-1.7c1.1-1.1,1.7-2.5,1.7-4.2c0-1.6-0.6-3-1.7-4.2c-1.1-1.1-2.5-1.7-4.1-1.7
		c-1.6,0-3,0.6-4.1,1.7c-1.1,1.1-1.7,2.5-1.7,4.2C83.5,102.1,84.1,103.5,85.2,104.6z"/>
	<path class="st5" d="M102.3,95.5c0.9-1.8,2.5-2.7,4.7-2.7v1.9c-1.3,0-2.5,0.4-3.3,1.2c-0.9,0.8-1.3,2-1.3,3.7v8.2h-2V93h2V95.5z"/>
	<path class="st5" d="M121.6,107.8H119l-7.4-7.1v7.1h-2V87.1h2v12.5l7-6.5h2.7l-7.6,7.1L121.6,107.8z"/>
</g>
</svg>
